<svg width="328" height="328" viewBox="0 0 328 328" fill="none" xmlns="http://www.w3.org/2000/svg">
<path d="M144.867 226.867L241.217 130.517L222.083 111.383L144.867 188.6L105.917 149.65L86.7834 168.783L144.867 226.867ZM164 300.667C145.094 300.667 127.328 297.077 110.7 289.897C94.0723 282.727 79.6084 272.992 67.3084 260.692C55.0084 248.392 45.2732 233.928 38.1027 217.3C30.9232 200.672 27.3334 182.905 27.3334 164C27.3334 145.094 30.9232 127.328 38.1027 110.7C45.2732 94.0721 55.0084 79.6083 67.3084 67.3083C79.6084 55.0083 94.0723 45.2685 110.7 38.0889C127.328 30.9185 145.094 27.3333 164 27.3333C182.906 27.3333 200.672 30.9185 217.3 38.0889C233.928 45.2685 248.392 55.0083 260.692 67.3083C272.992 79.6083 282.727 94.0721 289.897 110.7C297.077 127.328 300.667 145.094 300.667 164C300.667 182.905 297.077 200.672 289.897 217.3C282.727 233.928 272.992 248.392 260.692 260.692C248.392 272.992 233.928 282.727 217.3 289.897C200.672 297.077 182.906 300.667 164 300.667ZM164 273.333C194.522 273.333 220.375 262.742 241.558 241.558C262.742 220.375 273.333 194.522 273.333 164C273.333 133.478 262.742 107.625 241.558 86.4416C220.375 65.2583 194.522 54.6666 164 54.6666C133.478 54.6666 107.625 65.2583 86.4417 86.4416C65.2584 107.625 54.6667 133.478 54.6667 164C54.6667 194.522 65.2584 220.375 86.4417 241.558C107.625 262.742 133.478 273.333 164 273.333Z" fill="#56C5A1"/>
</svg>
